<svg xmlns="http://www.w3.org/2000/svg" style="display:none">

  <!-- Icono 1 -->
  <symbol
    id="arrow-green"
    viewBox="0 0 24 24"
    fill="none"
    stroke="#00c7be"
    stroke-width="1.75"
    stroke-linecap="round"
    stroke-linejoin="round"
  >
    <path d="M3 19a2 2 0 1 0 4 0 2 2 0 1 0-4 0M7 19h3a2 2 0 0 0 2-2V9a2 2 0 0 1 2-2h7" />
    <path d="m18 4 3 3-3 3" />
  </symbol>

  <!-- Icono 2 (tu coffee cup) -->
  <symbol
    id="cup-coffee"
    viewBox="0 0 24 24"
    fill="none"
    stroke="#"
    stroke-width="2"
    stroke-linecap="round"
    stroke-linejoin="round"
  >
    <path d="M0 0h24v24H0z" stroke="none"/>
    <path d="M3 14c.83.642 2.077 1.017 3.5 1 1.423.017 2.67-.358 3.5-1 .83-.642 2.077-1.017 3.5-1 1.423-.017 2.67.358 3.5 1M8 3a2.4 2.4 0 0 0-1 2 2.4 2.4 0 0 0 1 2M12 3a2.4 2.4 0 0 0-1 2 2.4 2.4 0 0 0 1 2"/>
    <path d="M3 10h14v5a6 6 0 0 1-6 6H9a6 6 0 0 1-6-6v-5z"/>
    <path d="M16.746 16.726a3 3 0 1 0 .252-5.555"/>
  </symbol>
  <!-- Icono $-->
  <symbol
  id="money-icon"
   fill="none" stroke="#" stroke-width="2" stroke-linecap="round" stroke-linejoin="round"
    viewBox="0 0 24 24" >
<path d="M0 0h24v24H0z" stroke="none"/>
<path d="M16.7 8A3 3 0 0 0 14 6h-4a3 3 0 0 0 0 6h4a3 3 0 0 1 0 6h-4a3 3 0 0 1-2.7-2M12 3v3m0 12v3"/>
</symbol>
  
  
<!-- Circle -->

<symbol id="circle" fill="none" stroke="#" stroke-width="2" stroke-linecap="round" stroke-linejoin="round" class="aicon aicon-tabler aicons-tabler-outline aicon-tabler-circle" viewBox="0 0 24 24" >
<path d="M0 0h24v24H0z" stroke="none"/>
<path d="M3 12a9 9 0 1 0 18 0 9 9 0 1 0-18 0"/>
</symbol>

<!-- Circle Check-->
<symbol id="circle-check" fill="none" stroke="#" stroke-width="2" stroke-linecap="round" stroke-linejoin="round" class="aicon aicon-tabler aicons-tabler-outline aicon-tabler-circle-check" viewBox="0 0 24 24" >
<path d="M0 0h24v24H0z" stroke="none"/>
<path d="M3 12a9 9 0 1 0 18 0 9 9 0 1 0-18 0"/>
<path d="m9 12 2 2 4-4"/>
</symbol>

<!-- Circle-X -->
<symbol id="circle-x" fill="none" stroke="#" stroke-width="2" stroke-linecap="round" stroke-linejoin="round" class="aicon aicon-tabler aicons-tabler-outline aicon-tabler-circle-x" viewBox="0 0 24 24">
<path d="M0 0h24v24H0z" stroke="none"/>
<path d="M3 12a9 9 0 1 0 18 0 9 9 0 1 0-18 0M10 10l4 4m0-4-4 4"/>
</symbol>

</svg>
